<svg width="100" height="102" viewBox="0 0 100 102" fill="none" xmlns="http://www.w3.org/2000/svg">
<path d="M50 101.5C77.3381 101.5 99.5 79.3381 99.5 52C99.5 24.6619 77.3381 2.5 50 2.5C22.6619 2.5 0.5 24.6619 0.5 52C0.5 79.3381 22.6619 101.5 50 101.5Z" fill="white" stroke="#E9E9E9"/>
<path d="M19 24C25.6274 24 31 18.6274 31 12C31 5.37258 25.6274 0 19 0C12.3726 0 7 5.37258 7 12C7 18.6274 12.3726 24 19 24Z" fill="#FFBD12"/>
<path d="M22.2654 11.778C22.844 12.2727 23.1334 12.996 23.1334 13.948C23.1334 15.0027 22.774 15.8053 22.0554 16.356C21.346 16.8973 20.4454 17.168 19.3534 17.168C18.3174 17.168 17.468 16.9113 16.8054 16.398C16.152 15.8847 15.774 15.1287 15.6714 14.13L17.5054 14.004C17.6547 15.0867 18.2707 15.628 19.3534 15.628C19.932 15.628 20.3894 15.4833 20.7254 15.194C21.0707 14.8953 21.2434 14.48 21.2434 13.948C21.2434 13.444 21.0894 13.0427 20.7814 12.744C20.4734 12.4453 20.0114 12.296 19.3954 12.296C18.9847 12.296 18.49 12.3567 17.9114 12.478V11.176L20.4174 8.73995H16.1754V7.19995H22.8534V8.57195L20.0534 11.022C21.024 11.0873 21.7614 11.3393 22.2654 11.778Z" fill="white"/>
<path d="M71.1534 34.0569C71.0405 32.9491 70.1131 32.0897 68.9964 32.0579C59.6031 31.7901 53.3836 28.6528 51.1456 27.3164C50.439 26.8944 49.5611 26.8946 48.8547 27.3164C47.5274 28.1091 44.6729 29.6045 40.4679 30.7143C40.0775 30.8174 39.8445 31.2175 39.9475 31.6079C40.0505 31.9983 40.4508 32.2312 40.8411 32.1283C45.2197 30.9727 48.2112 29.4041 49.6046 28.5721C49.8487 28.4262 50.1518 28.4262 50.3959 28.5721C52.7323 29.9672 59.2178 33.2423 68.9548 33.5198C69.3401 33.5308 69.6598 33.8255 69.6986 34.2053C70.0224 37.3796 70.5304 45.6846 68.2602 54.2267C66.9866 59.0186 65.0242 63.1621 62.4276 66.5422C59.3029 70.6096 55.2139 73.6191 50.2742 75.4873C50.0975 75.5541 49.903 75.5541 49.726 75.4873C44.7865 73.6191 40.6976 70.6096 37.5729 66.5422C34.9762 63.1621 33.0138 59.0186 31.7402 54.2267C29.4698 45.6846 29.978 37.3794 30.3018 34.2053C30.3405 33.8255 30.6603 33.5308 31.0456 33.5198C33.2138 33.458 35.3707 33.2399 37.4567 32.8715C37.8543 32.8013 38.1198 32.4219 38.0495 32.0241C37.9793 31.6265 37.6 31.3608 37.2023 31.4313C35.1864 31.7873 33.101 31.9981 31.004 32.0579C29.8873 32.0897 28.96 32.9491 28.8469 34.0569C28.515 37.311 27.9946 45.8271 30.3269 54.6023C31.6504 59.582 33.6981 63.899 36.4132 67.4332C39.7061 71.7194 44.0112 74.8895 49.2085 76.8552C49.4638 76.9519 49.7321 77.0001 50.0002 77.0001C50.2684 77.0001 50.5365 76.9519 50.7917 76.8552C55.9893 74.8895 60.2944 71.7194 63.5872 67.4332C66.3023 63.899 68.35 59.582 69.6736 54.6023C72.0057 45.8271 71.4854 37.311 71.1534 34.0569Z" fill="#989CA3"/>
<path d="M33.0379 37.2815C32.8281 39.3384 32.293 46.6303 34.217 54.1015C35.274 58.2058 36.909 61.7562 39.0763 64.6542C41.713 68.1794 45.1588 70.7645 49.3183 72.3377C49.5383 72.4208 49.7693 72.4624 50.0005 72.4624C50.2315 72.4624 50.4628 72.4208 50.6827 72.3376C54.8421 70.7645 58.288 68.1795 60.9246 64.6542C63.092 61.7562 64.7269 58.2059 65.784 54.1015C67.708 46.6303 67.1728 39.3384 66.9631 37.2815C66.8656 36.3263 66.0662 35.5854 65.1036 35.5579C57.6725 35.3461 52.7565 32.8665 50.988 31.8105C50.3789 31.4466 49.6222 31.4467 49.0131 31.8104C47.2444 32.8665 42.3284 35.3461 34.8973 35.5579C33.9347 35.5854 33.1353 36.3263 33.0379 37.2815ZM49.763 33.0659C49.8362 33.0222 49.9183 33.0003 50.0005 33.0003C50.0826 33.0003 50.1647 33.0222 50.2381 33.066C52.1051 34.181 57.2871 36.7982 65.0619 37.0198C65.2931 37.0264 65.4849 37.2027 65.5081 37.4298C65.7117 39.4257 66.2312 46.5004 64.3677 53.7366C62.122 62.4567 57.3436 68.2547 50.1654 70.9696C50.0592 71.01 49.942 71.0099 49.8356 70.9697C42.6573 68.2546 37.879 62.4567 35.6333 53.7366C33.7697 46.5005 34.2892 39.4258 34.4929 37.4298C34.516 37.2028 34.7078 37.0264 34.9391 37.0198C42.7139 36.7982 47.8959 34.181 49.763 33.0659Z" fill="#989CA3"/>
<path d="M50.0006 61.3173C53.3368 61.3173 56.4803 59.6891 58.4094 56.9621C58.6426 56.6324 58.5644 56.1762 58.2347 55.9429C57.9051 55.7096 57.4486 55.7878 57.2154 56.1176C55.5601 58.4577 52.8629 59.8549 50.0006 59.8549C45.1312 59.8549 41.1696 55.8933 41.1696 51.0239C41.1696 46.1545 45.1312 42.193 50.0006 42.193C54.87 42.193 58.8315 46.1545 58.8315 51.0239C58.8315 51.7854 58.7347 52.5412 58.5435 53.2703C58.441 53.6609 58.6747 54.0606 59.0653 54.1631C59.4559 54.2651 59.8557 54.0318 59.9581 53.6412C60.181 52.791 60.2939 51.9105 60.2939 51.0239C60.2939 45.3481 55.6764 40.7305 50.0005 40.7305C44.3246 40.7305 39.707 45.348 39.707 51.0239C39.707 56.6998 44.3248 61.3173 50.0006 61.3173Z" fill="#FFBD12"/>
<path d="M53.8354 45.8895C53.2247 45.9139 52.6602 46.1747 52.2457 46.6236L48.5732 50.6012L47.6638 49.7224C46.7568 48.846 45.3055 48.8706 44.4287 49.7776C43.5522 50.6846 43.5768 52.1358 44.4839 53.0127L47.0762 55.518C47.505 55.9326 48.0697 56.1609 48.6661 56.1609C48.6888 56.1609 48.7115 56.1606 48.7313 56.1599C49.3432 56.1426 49.9322 55.8746 50.3471 55.425L55.6075 49.7275C56.4633 48.8007 56.4055 47.3504 55.4785 46.4945C55.0296 46.08 54.4453 45.8655 53.8354 45.8895ZM54.5329 48.7355C54.5329 48.7355 49.2726 54.433 49.2725 54.4331C48.959 54.7726 48.4244 54.7874 48.0925 54.4666C48.0909 54.465 45.5002 51.9611 45.5002 51.9611C45.1729 51.6447 45.164 51.1212 45.4802 50.794C45.6419 50.6267 45.8577 50.5425 46.074 50.5425C46.2806 50.5425 46.4874 50.6195 46.6475 50.774C46.6475 50.774 48.0927 52.1708 48.0947 52.1727C48.3819 52.4503 48.8686 52.4371 49.1401 52.143C49.1401 52.143 53.307 47.63 53.3202 47.6158C54.0264 46.8509 55.2606 47.9476 54.5329 48.7355Z" fill="#FFBD12"/>
</svg>
