<svg width="101" height="101" viewBox="0 0 101 101" fill="none" xmlns="http://www.w3.org/2000/svg">
<g clip-path="url(#clip0_50_296)">
<path d="M50.5 100.5C77.8381 100.5 100 78.3381 100 51C100 23.6619 77.8381 1.5 50.5 1.5C23.1619 1.5 1 23.6619 1 51C1 78.3381 23.1619 100.5 50.5 100.5Z" fill="white" stroke="#E9E9E9"/>
<path d="M26.5 24C33.1274 24 38.5 18.6274 38.5 12C38.5 5.37258 33.1274 0 26.5 0C19.8726 0 14.5 5.37258 14.5 12C14.5 18.6274 19.8726 24 26.5 24Z" fill="#FFBD12"/>
<path d="M27.5054 10.42C28.4481 10.42 29.2088 10.714 29.7874 11.302C30.3754 11.89 30.6694 12.702 30.6694 13.738C30.6694 14.83 30.3241 15.6747 29.6334 16.272C28.9428 16.8693 28.0468 17.168 26.9454 17.168C25.9561 17.168 25.1161 16.9253 24.4254 16.44C23.7348 15.9453 23.3194 15.2453 23.1794 14.34L25.0134 14.214C25.1161 14.6807 25.3448 15.0353 25.6994 15.278C26.0541 15.5113 26.4694 15.628 26.9454 15.628C27.4868 15.628 27.9254 15.4647 28.2614 15.138C28.6068 14.802 28.7794 14.3353 28.7794 13.738C28.7794 13.122 28.6021 12.6553 28.2474 12.338C27.9021 12.0113 27.4541 11.848 26.9034 11.848C26.1008 11.848 25.5034 12.156 25.1114 12.772L23.4314 12.632L23.8374 7.19995H30.1094V8.73995H25.2514L25.0554 11.386C25.6714 10.742 26.4881 10.42 27.5054 10.42Z" fill="white"/>
<path d="M73.6862 38.193C74.4245 37.4733 74.6851 36.417 74.3666 35.4365C74.048 34.456 73.2162 33.7548 72.1959 33.6065L68.0808 33.0085C67.6634 32.9478 67.3027 32.6857 67.116 32.3075L65.2756 28.5785C64.8193 27.6539 63.8954 27.0796 62.8645 27.0796C61.8334 27.0796 60.9095 27.6539 60.4532 28.5785L58.6129 32.3075C58.4261 32.6857 58.0654 32.9478 57.648 33.0085L53.5329 33.6065C52.5126 33.7548 51.6808 34.456 51.3621 35.4366C51.0435 36.4171 51.3043 37.4734 52.0426 38.193L55.0203 41.0956C55.3225 41.39 55.4602 41.814 55.3889 42.2299L54.686 46.3283C54.5117 47.3445 54.9215 48.3523 55.7556 48.9583C56.227 49.3008 56.7784 49.4748 57.3337 49.4748C57.761 49.4748 58.1906 49.3717 58.5874 49.1631L62.2682 47.228C62.6416 47.0317 63.0874 47.0317 63.4607 47.228L67.1415 49.1631C68.0541 49.6428 69.139 49.5644 69.9733 48.9584C70.8075 48.3525 71.2173 47.3446 71.0431 46.3285L70.9086 45.5441C70.8428 45.161 70.4788 44.9033 70.0961 44.9694C69.713 45.0351 69.4557 45.3988 69.5213 45.7819L69.6558 46.5664C69.7401 47.0581 69.5496 47.5266 69.1459 47.8198C68.7424 48.113 68.2378 48.1495 67.7964 47.9173L64.1157 45.9823C63.3321 45.5703 62.3967 45.5702 61.6131 45.9823L57.9324 47.9174C57.491 48.1496 56.9865 48.1131 56.5828 47.8198C56.1792 47.5266 55.9887 47.0581 56.0729 46.5664L56.7758 42.468C56.9256 41.5956 56.6366 40.7058 56.0027 40.0879L53.0249 37.1853C52.6677 36.8372 52.5465 36.3461 52.7006 35.8717C52.8548 35.3973 53.2415 35.0712 53.735 34.9995L57.8501 34.4015C58.7261 34.2743 59.483 33.7244 59.8748 32.9306L61.7151 29.2017C61.9359 28.7544 62.3655 28.4873 62.8643 28.4873C63.363 28.4873 63.7926 28.7544 64.0133 29.2017L65.8536 32.9306C66.2455 33.7244 67.0023 34.2743 67.8783 34.4015L71.9934 34.9995C72.4869 35.0713 72.8737 35.3973 73.0278 35.8716C73.182 36.346 73.0607 36.8371 72.7035 37.1852L69.7258 40.0878C69.0919 40.7057 68.8029 41.5955 68.9525 42.4678L68.9759 42.6042C69.0416 42.9873 69.4053 43.2447 69.7885 43.1789C70.1715 43.1132 70.4288 42.7494 70.3632 42.3664L70.3397 42.23C70.2684 41.8142 70.4061 41.3902 70.7083 41.0957L73.6862 38.193Z" fill="#FFBD12"/>
<path d="M65.1782 57.4635C65.677 56.885 65.9796 56.1329 65.9796 55.3108C65.9796 53.4903 64.4986 52.0093 62.678 52.0093L51.9671 51.9963C51.9656 51.9921 51.8471 51.6483 51.7719 51.4875C51.7715 51.4866 51.771 51.4856 51.7707 51.4848C51.608 51.1373 51.5474 50.7578 51.5959 50.3874C51.7528 49.1859 51.7917 47.9382 51.8229 46.9358C51.9033 44.3645 51.3902 42.4866 50.254 41.1945C49.1123 39.8961 47.4709 39.1538 45.7449 39.1538C45.732 39.1538 45.7189 39.1538 45.7059 39.1539C44.7362 39.1602 43.9473 39.9624 43.9473 40.9423V44.0681C43.9473 46.0571 43.6253 48.8246 42.0913 50.7142C40.464 52.7187 39.0587 52.7014 36.7315 52.6728C36.6516 52.6718 36.571 52.6708 36.4897 52.6699V51.8254C36.4897 50.4247 35.3501 49.2853 33.9496 49.2853H29.0401C27.6396 49.2852 26.5 50.4246 26.5 51.8253V58.892C26.5 59.2806 26.815 59.5957 27.2037 59.5957C27.5925 59.5957 27.9075 59.2806 27.9075 58.892V51.8253C27.9075 51.2007 28.4156 50.6926 29.0401 50.6926H33.9495C34.574 50.6926 35.0821 51.2007 35.0821 51.8253V72.3803C35.0821 73.0049 34.574 73.513 33.9495 73.513H29.0401C28.4156 73.513 27.9075 73.0049 27.9075 72.3803V62.1028C27.9075 61.7142 27.5925 61.3991 27.2037 61.3991C26.815 61.3991 26.5 61.7142 26.5 62.1028V72.3803C26.5 73.781 27.6396 74.9205 29.0401 74.9205H33.9495C35.3501 74.9205 36.4896 73.781 36.4896 72.3803V71.3175H37.441C37.9013 71.3175 38.357 71.4783 38.724 71.7705C38.8188 71.846 38.9293 71.9404 39.0574 72.0497C39.9374 72.801 41.5753 74.1995 43.92 74.1995L61.1943 74.1997C63.0149 74.1997 64.496 72.7187 64.496 70.8982C64.496 70.1119 64.2193 69.3893 63.7587 68.8216C65.05 68.373 65.9797 67.1446 65.9797 65.7026C65.9797 64.8807 65.6771 64.1285 65.1784 63.5501C66.365 63.0491 67.1998 61.8737 67.1998 60.5069C67.1998 59.14 66.3648 57.9646 65.1782 57.4635ZM56.6715 53.4168H62.6781C63.7225 53.4168 64.5723 54.2666 64.5723 55.3109C64.5723 56.3554 63.7225 57.2051 62.6781 57.2051H56.6715C55.627 57.2051 54.7773 56.3554 54.7773 55.3109C54.7773 54.2665 55.627 53.4168 56.6715 53.4168ZM52.4858 72.7921H43.9201C42.0945 72.7921 40.8169 71.7012 39.9714 70.9793C39.8393 70.8665 39.7145 70.76 39.6005 70.6693C38.9854 70.1797 38.2185 69.9101 37.4411 69.9101H36.4897V54.0774C36.5652 54.0783 36.6401 54.0792 36.7142 54.0801C39.1796 54.11 41.1277 54.1345 43.1842 51.6013C44.1745 50.3815 45.3549 48.0844 45.3549 44.0681V40.9424C45.3549 40.7336 45.5165 40.5628 45.7152 40.5615C45.7246 40.5614 45.7339 40.5614 45.7434 40.5614C47.0464 40.5614 48.3356 41.1442 49.1972 42.1239C50.0863 43.1351 50.4851 44.6947 50.4163 46.892C50.386 47.8635 50.3483 49.0727 50.2004 50.2053C50.1172 50.8421 50.2194 51.491 50.4961 52.0817C50.4975 52.0846 50.4992 52.0887 50.5007 52.0921C50.503 52.0973 50.5051 52.102 50.508 52.1087C50.5084 52.1098 50.5089 52.111 50.5095 52.1122C50.7345 52.6401 50.9057 53.215 50.9324 53.7931C50.9656 54.5134 50.8206 55.2386 50.4994 55.9526C50.493 55.9674 49.8271 57.4348 47.993 58.2487C47.6378 58.4063 47.4776 58.8221 47.6351 59.1773C48.1801 60.4061 50.2036 58.5589 50.703 58.0413C51.1264 57.6024 51.5359 57.0887 51.7848 56.5259C52.1956 55.6128 52.3819 54.6715 52.3383 53.7284C52.3336 53.6236 52.3239 53.5147 52.311 53.404H53.9789C53.596 53.943 53.3699 54.6009 53.3699 55.311C53.3699 56.6779 54.2048 57.8533 55.3915 58.3542C54.8927 58.9327 54.5901 59.6849 54.5901 60.5069C54.5901 61.3288 54.8927 62.0809 55.3913 62.6594C54.2047 63.1604 53.3699 64.3358 53.3699 65.7026C53.3699 66.4889 53.6466 67.2115 54.1073 67.7792C52.8159 68.2278 51.8862 69.4562 51.8862 70.8983C51.8862 71.6025 52.1086 72.2555 52.4858 72.7921ZM61.1943 72.7923L55.1842 72.7921C54.1414 72.7901 53.2936 71.9414 53.2936 70.8982C53.2936 69.8537 54.1434 69.0041 55.1878 69.0041H61.1944C62.2389 69.0041 63.0886 69.8537 63.0886 70.8982C63.0886 71.9426 62.2388 72.7923 61.1943 72.7923ZM62.678 67.5965H56.6715C55.627 67.5965 54.7773 66.7468 54.7773 65.7024C54.7773 64.658 55.627 63.8083 56.6715 63.8083H62.6781C63.7225 63.8083 64.5723 64.658 64.5723 65.7024C64.5722 66.7469 63.7224 67.5965 62.678 67.5965ZM63.8982 62.4009H57.8916C56.8471 62.4009 55.9974 61.5512 55.9974 60.5068C55.9974 59.4624 56.8471 58.6127 57.8916 58.6127H63.8982C64.9426 58.6127 65.7924 59.4624 65.7924 60.5068C65.7924 61.5512 64.9426 62.4009 63.8982 62.4009Z" fill="#989CA3"/>
</g>
<defs>
<clipPath id="clip0_50_296">
<rect width="100" height="101" fill="white" transform="translate(0.5)"/>
</clipPath>
</defs>
</svg>
