<svg width="100" height="100" viewBox="0 0 100 100" fill="none" xmlns="http://www.w3.org/2000/svg">
<path d="M50 99.5C77.3381 99.5 99.5 77.3381 99.5 50C99.5 22.6619 77.3381 0.5 50 0.5C22.6619 0.5 0.5 22.6619 0.5 50C0.5 77.3381 22.6619 99.5 50 99.5Z" fill="white" stroke="#E9E9E9"/>
<path d="M51.1885 48.192H49.2005V49.018H52.1125V50.11H49.2005V52H47.3105V50.11H46.3585V49.018H47.3105V48.192H46.3585V46.806H47.3105V42.368H49.2005H51.1325C52.0938 42.368 52.8918 42.6153 53.5265 43.11C54.1705 43.5953 54.4925 44.3467 54.4925 45.364C54.4925 46.372 54.1891 47.0953 53.5825 47.534C52.9758 47.9727 52.1778 48.192 51.1885 48.192ZM49.2005 43.908V46.806H50.9085C52.0378 46.806 52.6025 46.3253 52.6025 45.364C52.6025 44.8787 52.4531 44.5147 52.1545 44.272C51.8558 44.0293 51.4405 43.908 50.9085 43.908H49.2005Z" fill="#FFBD12"/>
<path d="M39.1436 47.8981C39.1436 54.2038 44.2551 59.3153 50.5607 59.3153C56.8664 59.3153 61.9779 54.2038 61.9779 47.8981C61.9779 41.5925 56.8664 36.481 50.5607 36.481C44.2582 36.4879 39.1509 41.5956 39.1436 47.8981ZM50.5607 38.0556C55.9967 38.0556 60.4032 42.4621 60.4032 47.8981C60.4032 53.3341 55.9967 57.7406 50.5607 57.7406C45.1247 57.7406 40.7182 53.3341 40.7182 47.8981C40.7244 42.4648 45.1274 38.0618 50.5607 38.0556Z" fill="#FFBD12"/>
<path d="M65.8597 61.2561L59.6921 64.1702C58.8405 62.5863 57.207 61.5783 55.4094 61.5275L49.7158 61.3711C48.8142 61.3453 47.9296 61.1169 47.1281 60.7029L46.5487 60.4026C43.5824 58.8564 40.0466 58.8603 37.0834 60.4126L37.1195 59.1002C37.1314 58.6654 36.7889 58.3032 36.3541 58.2913L30.1107 58.1194C29.6759 58.1075 29.3142 58.4501 29.3022 58.8849L28.9251 72.5856C28.9132 73.0204 29.2557 73.3826 29.6905 73.3945L35.9339 73.5664H35.9554C36.3821 73.5664 36.7312 73.2269 36.7427 72.8005L36.7608 72.1451L38.3828 71.2766C39.0194 70.9341 39.7637 70.8526 40.4592 71.0494L50.1448 73.7678C50.1617 73.7728 50.1786 73.7766 50.1959 73.7805C50.896 73.927 51.6095 74.0004 52.3246 74C53.8393 74.0008 55.3363 73.6744 56.713 73.0424C56.7468 73.027 56.7795 73.0089 56.8107 72.9885L70.854 63.9049C71.2038 63.6785 71.3168 63.2191 71.1119 62.8562C70.0693 61.0062 67.7569 60.3015 65.8597 61.2561ZM30.5209 71.8421L30.8546 59.7153L35.5237 59.8437L35.19 71.9709L30.5209 71.8421ZM56.0037 71.6361C54.2933 72.408 52.383 72.621 50.5446 72.2454L40.8851 69.5339C39.7979 69.2268 38.6342 69.354 37.6397 69.8888L36.8108 70.3328L37.0326 62.2699C39.6591 60.523 43.0276 60.3434 45.8248 61.8009L46.4042 62.1011C47.4168 62.624 48.5336 62.9123 49.6727 62.9454L55.3667 63.1018C56.966 63.148 58.3242 64.2867 58.6487 65.8537L50.1675 65.6195C49.7327 65.6076 49.3709 65.9505 49.3586 66.385C49.3467 66.8198 49.6896 67.1819 50.124 67.1938L59.4837 67.4514H59.5056C59.9319 67.451 60.2806 67.1116 60.2922 66.6856C60.3018 66.3434 60.2764 66.0009 60.216 65.6641L66.542 62.6751C66.5482 62.6724 66.5544 62.6693 66.5605 62.6662C67.4578 62.2122 68.5427 62.3641 69.2808 63.0472L56.0037 71.6361Z" fill="#989CA3"/>
<path d="M51.3491 34.2671V26.7873C51.3491 26.3525 50.9966 26 50.5618 26C50.1269 26 49.7744 26.3525 49.7744 26.7873V34.2671C49.7744 34.7019 50.1269 35.0544 50.5618 35.0544C50.9966 35.0544 51.3491 34.7019 51.3491 34.2671Z" fill="#989CA3"/>
<path d="M57.2534 34.2674V30.7244C57.2534 30.2895 56.9009 29.937 56.466 29.937C56.0312 29.937 55.6787 30.2895 55.6787 30.7244V34.2674C55.6787 34.7022 56.0312 35.0547 56.466 35.0547C56.9009 35.0547 57.2534 34.7022 57.2534 34.2674Z" fill="#989CA3"/>
<path d="M45.4438 34.2674V30.7244C45.4438 30.2895 45.0913 29.937 44.6565 29.937C44.2217 29.937 43.8691 30.2895 43.8691 30.7244V34.2674C43.8691 34.7022 44.2217 35.0547 44.6565 35.0547C45.0913 35.0547 45.4438 34.7022 45.4438 34.2674Z" fill="#989CA3"/>
<path d="M25 24C31.6274 24 37 18.6274 37 12C37 5.37258 31.6274 0 25 0C18.3726 0 13 5.37258 13 12C13 18.6274 18.3726 24 25 24Z" fill="#FFBD12"/>
<path d="M25.6285 7.19995H27.1545V17H25.2505V9.28595L22.9965 10.728V8.86595L25.6285 7.19995Z" fill="white"/>
</svg>
