<?xml version="1.0" standalone="no"?>
<!DOCTYPE svg PUBLIC "-//W3C//DTD SVG 20010904//EN"
 "http://www.w3.org/TR/2001/REC-SVG-20010904/DTD/svg10.dtd">
<svg version="1.0" xmlns="http://www.w3.org/2000/svg"
 width="142.000000pt" height="142.000000pt" viewBox="0 0 142.000000 142.000000"
 preserveAspectRatio="xMidYMid meet">
<metadata>
Created by potrace 1.14, written by Peter Selinger 2001-2017
</metadata>
<g transform="translate(0.000000,142.000000) scale(0.100000,-0.100000)"
fill="#000000" stroke="none">
<path d="M761 1412 c-8 -6 -10 -15 -6 -22 5 -9 4 -11 -3 -6 -7 4 -12 0 -13
-11 -1 -26 -5 -41 -28 -102 -11 -29 -20 -56 -19 -60 1 -3 -4 -18 -10 -33 -9
-22 -19 -27 -54 -31 -24 -2 39 -4 140 -5 l182 -2 0 -80 0 -80 -190 0 -190 0 0
-69 0 -68 113 -6 c67 -3 132 -12 162 -23 137 -47 197 -143 182 -289 -11 -109
-74 -180 -192 -218 -60 -19 -91 -22 -215 -21 -80 1 -163 5 -185 10 l-40 10 -5
409 c-3 226 -8 401 -12 390 -4 -11 -8 -200 -10 -420 -2 -351 -1 -403 13 -422
9 -13 19 -20 22 -16 10 9 9 -11 -1 -22 -15 -19 -33 -85 -26 -96 5 -8 3 -9 -6
-4 -10 6 -12 1 -8 -18 3 -15 2 -24 -3 -22 -4 3 -10 1 -14 -5 -3 -5 0 -10 7
-10 9 0 9 -3 2 -8 -15 -10 -25 -42 -13 -42 6 0 7 -5 4 -11 -10 -15 837 -7 886
9 98 32 162 114 179 227 13 91 13 839 0 930 -17 114 -82 196 -179 226 -46 14
-451 23 -470 11z"/>
<path d="M570 566 l0 -116 79 0 c44 0 92 5 108 11 68 26 98 90 69 148 -24 45
-67 63 -168 69 l-88 5 0 -117z"/>
</g>
</svg>
