<svg width="23" height="23" viewBox="0 0 23 23" fill="none" xmlns="http://www.w3.org/2000/svg">
<path d="M11.5 23C17.8513 23 23 17.8513 23 11.5C23 5.14873 17.8513 0 11.5 0C5.14873 0 0 5.14873 0 11.5C0 17.8513 5.14873 23 11.5 23Z" fill="url(#paint0_linear_50_161)"/>
<path fill-rule="evenodd" clip-rule="evenodd" d="M5.2056 11.3786C8.55808 9.91798 10.7936 8.95504 11.9121 8.4898C15.1058 7.16145 15.7694 6.9307 16.202 6.92308C16.2971 6.9214 16.5098 6.94498 16.6476 7.05678C16.7639 7.15118 16.7959 7.27871 16.8113 7.36821C16.8266 7.45772 16.8457 7.66161 16.8305 7.82093C16.6574 9.63935 15.9086 14.0522 15.5276 16.0888C15.3664 16.9506 15.049 17.2396 14.7417 17.2679C14.0739 17.3293 13.5667 16.8265 12.9199 16.4025C11.9078 15.739 11.336 15.326 10.3535 14.6786C9.21809 13.9304 9.95413 13.5191 10.6012 12.8471C10.7705 12.6712 13.713 9.99479 13.7699 9.752C13.7771 9.72164 13.7837 9.60845 13.7164 9.54868C13.6492 9.48892 13.5499 9.50935 13.4783 9.52561C13.3768 9.54865 11.7599 10.6174 8.62756 12.7318C8.16861 13.0469 7.7529 13.2005 7.38044 13.1924C6.96983 13.1836 6.17998 12.9603 5.59281 12.7694C4.87262 12.5353 4.30023 12.4115 4.35007 12.014C4.37603 11.8069 4.66121 11.5951 5.2056 11.3786Z" fill="white"/>
<defs>
<linearGradient id="paint0_linear_50_161" x1="11.5" y1="0" x2="11.5" y2="22.8294" gradientUnits="userSpaceOnUse">
<stop stop-color="#2AABEE"/>
<stop offset="1" stop-color="#229ED9"/>
</linearGradient>
</defs>
</svg>
