<svg width="100" height="100" viewBox="0 0 100 100" fill="none" xmlns="http://www.w3.org/2000/svg">
<path d="M50 99.5C77.3381 99.5 99.5 77.3381 99.5 50C99.5 22.6619 77.3381 0.5 50 0.5C22.6619 0.5 0.5 22.6619 0.5 50C0.5 77.3381 22.6619 99.5 50 99.5Z" fill="white" stroke="#E9E9E9"/>
<path d="M58.9888 48.1894L47.875 49.8291L28.1865 46.9261V36.9916H67.5635V42.2247C67.5635 42.4495 67.6524 42.6651 67.8105 42.8241C67.9686 42.983 68.1831 43.0723 68.4068 43.0723C68.6304 43.0723 68.8449 42.983 69.003 42.8241C69.1612 42.6651 69.25 42.4495 69.25 42.2247V36.144C69.25 35.9192 69.1612 35.7036 69.003 35.5446C68.8449 35.3856 68.6304 35.2963 68.4068 35.2963H54.3166C54.1496 33.9727 53.5086 32.7556 52.5134 31.8728C51.5182 30.99 50.2371 30.5019 48.9098 30.5H46.8395C45.5123 30.5019 44.2313 30.99 43.2362 31.8728C42.2411 32.7557 41.6002 33.9728 41.4334 35.2963H27.3432C27.1196 35.2963 26.9051 35.3856 26.747 35.5446C26.5888 35.7036 26.5 35.9192 26.5 36.144V47.6564C26.5001 47.8598 26.5729 48.0563 26.7052 48.2102C26.8375 48.364 27.0203 48.465 27.2205 48.4946L27.8181 48.5827V62.6524C27.8181 62.8772 27.907 63.0928 28.0651 63.2517C28.2233 63.4107 28.4377 63.5 28.6614 63.5H56.955C57.1786 63.5 57.3931 63.4107 57.5512 63.2517C57.7093 63.0928 57.7982 62.8772 57.7982 62.6524C57.7982 62.4275 57.7093 62.2119 57.5512 62.053C57.3931 61.894 57.1786 61.8047 56.955 61.8047H29.5053V48.8316L47.7529 51.5244C47.8341 51.5367 47.9166 51.5367 47.9978 51.5244L59.2337 49.8664C59.4514 49.8298 59.6461 49.7089 59.7761 49.5295C59.9061 49.3502 59.9609 49.1268 59.9289 48.9073C59.8968 48.6878 59.7804 48.4896 59.6047 48.3554C59.4289 48.2212 59.2078 48.1616 58.9888 48.1894ZM46.8395 32.1953H48.9098C49.7904 32.1963 50.6429 32.5068 51.3196 33.0732C51.9964 33.6395 52.4547 34.426 52.6153 35.2963H43.1347C43.2951 34.4261 43.7533 33.6396 44.43 33.0733C45.1066 32.5069 45.959 32.1963 46.8395 32.1953Z" fill="#989CA3"/>
<path d="M45.25 45.875C45.25 46.3942 45.404 46.9017 45.6924 47.3334C45.9808 47.765 46.3908 48.1015 46.8705 48.3002C47.3501 48.4989 47.8779 48.5508 48.3871 48.4496C48.8963 48.3483 49.364 48.0983 49.7312 47.7312C50.0983 47.364 50.3483 46.8963 50.4496 46.3871C50.5508 45.8779 50.4989 45.3501 50.3002 44.8705C50.1015 44.3908 49.7651 43.9808 49.3334 43.6924C48.9017 43.404 48.3942 43.25 47.875 43.25C47.1791 43.2509 46.5119 43.5278 46.0199 44.0198C45.5278 44.5119 45.2509 45.1791 45.25 45.875ZM48.7796 45.875C48.7796 46.0538 48.7266 46.2285 48.6273 46.3772C48.5279 46.5258 48.3868 46.6417 48.2216 46.7101C48.0564 46.7785 47.8747 46.7964 47.6993 46.7615C47.524 46.7267 47.3629 46.6406 47.2365 46.5142C47.1101 46.3877 47.024 46.2267 46.9891 46.0513C46.9543 45.876 46.9722 45.6943 47.0406 45.5291C47.109 45.3639 47.2249 45.2227 47.3735 45.1234C47.5221 45.0241 47.6969 44.9711 47.8757 44.9711C48.1152 44.9714 48.3449 45.0668 48.5142 45.2363C48.6835 45.4057 48.7787 45.6354 48.7789 45.875H48.7796Z" fill="#989CA3"/>
<path d="M73.6485 55.0469H72.1245V50.3752C72.1321 49.7377 72.0148 49.1051 71.7795 48.514C71.5442 47.9228 71.1956 47.3849 70.7538 46.9315C70.3121 46.478 69.786 46.118 69.206 45.8722C68.6261 45.6265 68.0038 45.5 67.3753 45.5C66.7468 45.5 66.1246 45.6265 65.5446 45.8722C64.9647 46.118 64.4386 46.478 63.9969 46.9315C63.5551 47.3849 63.2065 47.9228 62.9712 48.514C62.7359 49.1051 62.6186 49.7377 62.6261 50.3752V55.0469H61.1015C60.8757 55.0469 60.6591 55.1379 60.4994 55.2998C60.3397 55.4618 60.25 55.6815 60.25 55.9106V68.6363C60.25 68.8654 60.3397 69.085 60.4994 69.247C60.6591 69.409 60.8757 69.5 61.1015 69.5H73.6485C73.8743 69.5 74.0909 69.409 74.2506 69.247C74.4103 69.085 74.5 68.8654 74.5 68.6363V55.9106C74.5 55.6815 74.4103 55.4618 74.2506 55.2998C74.0909 55.1379 73.8743 55.0469 73.6485 55.0469ZM64.3292 50.3752C64.3232 49.9655 64.3975 49.5588 64.5479 49.1786C64.6982 48.7983 64.9217 48.4522 65.2051 48.1604C65.4886 47.8685 65.8264 47.6368 66.199 47.4786C66.5716 47.3204 66.9714 47.2389 67.3753 47.2389C67.7792 47.2389 68.1791 47.3204 68.5517 47.4786C68.9243 47.6368 69.2621 47.8685 69.5456 48.1604C69.829 48.4522 70.0524 48.7983 70.2028 49.1786C70.3532 49.5588 70.4275 49.9655 70.4215 50.3752V55.0469H64.3292V50.3752ZM72.7969 67.7726H61.9531V56.7743H72.7969V67.7726Z" fill="#FFBD12"/>
<path d="M67.375 59C67.0766 59 66.7905 59.0944 66.5795 59.2623C66.3685 59.4302 66.25 59.658 66.25 59.8955V64.1045C66.25 64.342 66.3685 64.5698 66.5795 64.7377C66.7905 64.9056 67.0766 65 67.375 65C67.6734 65 67.9595 64.9056 68.1705 64.7377C68.3815 64.5698 68.5 64.342 68.5 64.1045V59.8955C68.5 59.658 68.3815 59.4302 68.1705 59.2623C67.9595 59.0944 67.6734 59 67.375 59Z" fill="#FFBD12"/>
<path d="M24 24C30.6274 24 36 18.6274 36 12C36 5.37258 30.6274 0 24 0C17.3726 0 12 5.37258 12 12C12 18.6274 17.3726 24 24 24Z" fill="#FFBD12"/>
<path d="M22.8755 15.46H27.5375V17H20.2855V15.586L23.3795 12.688C23.7622 12.3333 24.0328 12.0767 24.1915 11.918C24.3595 11.7593 24.5555 11.5493 24.7795 11.288C25.0128 11.0173 25.1715 10.7747 25.2555 10.56C25.3395 10.336 25.3815 10.1073 25.3815 9.87398C25.3815 9.46331 25.2555 9.14598 25.0035 8.92198C24.7608 8.68865 24.4342 8.57198 24.0235 8.57198C23.5568 8.57198 23.1742 8.74465 22.8755 9.08998C22.5862 9.42598 22.4135 9.94865 22.3575 10.658L20.5375 10.518C20.6215 9.35131 20.9808 8.47865 21.6155 7.89998C22.2502 7.32131 23.0528 7.03198 24.0235 7.03198C24.9662 7.03198 25.7455 7.27931 26.3615 7.77398C26.9775 8.25931 27.2855 8.95931 27.2855 9.87398C27.2855 10.4433 27.1268 10.98 26.8095 11.484C26.5015 11.988 25.9555 12.5993 25.1715 13.318L22.8755 15.46Z" fill="white"/>
</svg>
