<svg width="101" height="101" viewBox="0 0 101 101" fill="none" xmlns="http://www.w3.org/2000/svg">
<g clip-path="url(#clip0_50_281)">
<path d="M50.5 100.5C77.8381 100.5 100 78.3381 100 51C100 23.6619 77.8381 1.5 50.5 1.5C23.1619 1.5 1 23.6619 1 51C1 78.3381 23.1619 100.5 50.5 100.5Z" fill="white" stroke="#E9E9E9"/>
<path d="M25.5 24C32.1274 24 37.5 18.6274 37.5 12C37.5 5.37258 32.1274 0 25.5 0C18.8726 0 13.5 5.37258 13.5 12C13.5 18.6274 18.8726 24 25.5 24Z" fill="#FFBD12"/>
<path d="M28.5697 13.304H30.0537V14.844H28.5697V17H26.6657V14.844H21.8777V13.43L25.4897 7.19995H28.5697V13.304ZM23.7257 13.304H26.6657V8.23595L23.7257 13.304Z" fill="white"/>
<path d="M55.9387 73.3009H30.4566V35.0402L35.6227 29.9007V33.8386H33.9633C33.7368 33.8386 33.5196 33.9281 33.3594 34.0874C33.1993 34.2467 33.1093 34.4628 33.1093 34.6882C33.1093 34.9135 33.1993 35.1296 33.3594 35.2889C33.5196 35.4482 33.7368 35.5377 33.9633 35.5377H36.4787C36.7052 35.5377 36.9224 35.4482 37.0825 35.2889C37.2427 35.1296 37.3326 34.9135 37.3326 34.6882V28.6991H61.5421V44.8828C61.5421 45.1082 61.632 45.3242 61.7922 45.4836C61.9523 45.6429 62.1696 45.7324 62.396 45.7324C62.6225 45.7324 62.8397 45.6429 62.9999 45.4836C63.16 45.3242 63.25 45.1082 63.25 44.8828V27.8496C63.25 27.6242 63.16 27.4082 62.9999 27.2488C62.8397 27.0895 62.6225 27 62.396 27H36.4787C36.3665 27 36.2555 27.0219 36.1519 27.0646C36.0482 27.1073 35.9541 27.1699 35.8748 27.2488L29 34.0873C28.9207 34.1663 28.8579 34.2599 28.815 34.363C28.7721 34.4661 28.75 34.5766 28.75 34.6882V74.1504C28.75 74.3758 28.84 74.5918 29.0001 74.7512C29.1603 74.9105 29.3775 75 29.604 75H55.9387C56.1652 75 56.3824 74.9105 56.5426 74.7512C56.7027 74.5918 56.7927 74.3758 56.7927 74.1504C56.7927 73.9251 56.7027 73.709 56.5426 73.5497C56.3824 73.3904 56.1652 73.3009 55.9387 73.3009Z" fill="#989CA3"/>
<path d="M51.1375 41.4759C51.3613 41.4759 51.5759 41.385 51.7342 41.2231C51.8924 41.0613 51.9813 40.8418 51.9813 40.6129C51.9813 40.3841 51.8924 40.1646 51.7342 40.0027C51.5759 39.8409 51.3613 39.75 51.1375 39.75H40.1128C39.889 39.75 39.6744 39.8409 39.5162 40.0027C39.3579 40.1646 39.269 40.3841 39.269 40.6129C39.269 40.8418 39.3579 41.0613 39.5162 41.2231C39.6744 41.385 39.889 41.4759 40.1128 41.4759H51.1375Z" fill="#989CA3"/>
<path d="M55.75 46.7109C55.75 46.482 55.6611 46.2625 55.5029 46.1007C55.3446 45.9388 55.13 45.8479 54.9062 45.8479H36.3437C36.12 45.8479 35.9054 45.9388 35.7471 46.1007C35.5889 46.2625 35.5 46.482 35.5 46.7109C35.5 46.9397 35.5889 47.1592 35.7471 47.3211C35.9054 47.4829 36.12 47.5738 36.3437 47.5738H54.9062C55.13 47.5738 55.3446 47.4829 55.5029 47.3211C55.6611 47.1592 55.75 46.9397 55.75 46.7109Z" fill="#989CA3"/>
<path d="M52.5019 50.853C52.5019 50.6241 52.413 50.4046 52.2547 50.2428C52.0965 50.0809 51.8819 49.99 51.6581 49.99H36.3437C36.12 49.99 35.9054 50.0809 35.7471 50.2428C35.5889 50.4046 35.5 50.6241 35.5 50.853C35.5 51.0818 35.5889 51.3013 35.7471 51.4632C35.9054 51.625 36.12 51.7159 36.3437 51.7159H51.6581C51.8819 51.7159 52.0965 51.625 52.2547 51.4632C52.413 51.3013 52.5019 51.0818 52.5019 50.853Z" fill="#989CA3"/>
<path d="M36.3437 55.858H49.1269C49.3507 55.858 49.5653 55.7671 49.7235 55.6053C49.8817 55.4434 49.9706 55.2239 49.9706 54.9951C49.9706 54.7662 49.8817 54.5467 49.7235 54.3849C49.5653 54.223 49.3507 54.1321 49.1269 54.1321H36.3437C36.12 54.1321 35.9054 54.223 35.7471 54.3849C35.5889 54.5467 35.5 54.7662 35.5 54.9951C35.5 55.2239 35.5889 55.4434 35.7471 55.6053C35.9054 55.7671 36.12 55.858 36.3437 55.858Z" fill="#989CA3"/>
<path d="M36.3437 60.0001H49.9706C50.1944 60.0001 50.409 59.9092 50.5672 59.7473C50.7255 59.5855 50.8144 59.366 50.8144 59.1372C50.8144 58.9083 50.7255 58.6888 50.5672 58.527C50.409 58.3651 50.1944 58.2742 49.9706 58.2742H36.3437C36.12 58.2742 35.9054 58.3651 35.7471 58.527C35.5889 58.6888 35.5 58.9083 35.5 59.1372C35.5 59.366 35.5889 59.5855 35.7471 59.7473C35.9054 59.9092 36.12 60.0001 36.3437 60.0001Z" fill="#989CA3"/>
<path d="M47.4358 68.0857C47.7977 67.6271 48.2282 67.2231 48.7132 66.8869C48.7637 67.0866 48.7988 67.2897 48.8181 67.4944C48.8826 68.0222 48.9611 68.677 49.6091 68.9259C49.7355 68.9748 49.8704 68.9999 50.0066 69C50.5152 68.942 50.9886 68.7199 51.3502 68.3695C51.6762 68.1075 52.0291 67.8504 52.4002 67.6046C52.5763 67.4879 52.6972 67.3083 52.7364 67.1055C52.7755 66.9026 52.7296 66.693 52.6089 66.5228C52.4881 66.3526 52.3023 66.2358 52.0923 66.198C51.8824 66.1601 51.6655 66.2045 51.4894 66.3212C51.1029 66.5757 50.737 66.8427 50.3943 67.1147C50.3586 66.6444 50.2038 66.1898 49.9434 65.7909C49.8287 65.6279 49.6753 65.4938 49.496 65.3997C49.3167 65.3056 49.1168 65.2543 48.9128 65.25H48.8819C47.8011 65.25 46.6275 66.5571 46.1701 67.1266C46.1051 67.2071 46.0572 67.2993 46.029 67.3978C46.0009 67.4963 45.9931 67.5992 46.0061 67.7006C46.0191 67.802 46.0527 67.8999 46.1049 67.9888C46.157 68.0777 46.2268 68.1558 46.3102 68.2186C46.3936 68.2814 46.489 68.3277 46.591 68.3549C46.6929 68.3821 46.7994 68.3896 46.9043 68.377C47.0092 68.3645 47.1106 68.3321 47.2026 68.2816C47.2945 68.2312 47.3753 68.1638 47.4404 68.0832L47.4358 68.0857Z" fill="#989CA3"/>
<path d="M71.8034 53.8053L62.5226 48.8496C62.4002 48.7842 62.2635 48.75 62.1247 48.75C61.9858 48.75 61.8491 48.7842 61.7267 48.8496L52.4466 53.8053C52.3131 53.8766 52.2013 53.9825 52.123 54.1118C52.0446 54.2411 52.0026 54.3891 52.0014 54.5402C51.8665 69.6193 61.3328 74.6962 61.7362 74.9055C61.8562 74.9676 61.9895 75 62.1247 75C62.2599 75 62.3931 74.9676 62.5132 74.9055C62.9179 74.6962 72.3821 69.62 72.2486 54.5402C72.2474 54.3891 72.2054 54.2411 72.1271 54.1118C72.0488 53.9825 71.937 53.8766 71.8034 53.8053ZM62.1247 73.1867C60.4054 72.11 53.7578 67.1677 53.687 55.0537L62.1247 50.5448L70.5631 55.0537C70.4916 67.1684 63.8412 72.1106 62.1247 73.1847V73.1867Z" fill="#FFBD12"/>
</g>
<defs>
<clipPath id="clip0_50_281">
<rect width="100" height="101" fill="white" transform="translate(0.5)"/>
</clipPath>
</defs>
</svg>
