<svg width="24" height="24" viewBox="0 0 24 24" fill="none" xmlns="http://www.w3.org/2000/svg">
<path d="M12 24C9.62663 24 7.30655 23.2962 5.33316 21.9776C3.35977 20.6591 1.8217 18.7849 0.913451 16.5922C0.00519953 14.3995 -0.232441 11.9867 0.230582 9.65892C0.693605 7.33115 1.83649 5.19295 3.51472 3.51472C5.19295 1.83649 7.33115 0.693605 9.65892 0.230582C11.9867 -0.232441 14.3995 0.00519953 16.5922 0.913451C18.7849 1.8217 20.6591 3.35977 21.9776 5.33316C23.2962 7.30655 24 9.62663 24 12C24 15.1826 22.7357 18.2349 20.4853 20.4853C18.2349 22.7357 15.1826 24 12 24ZM12 1.60001C9.94308 1.60001 7.93235 2.20995 6.22208 3.35272C4.5118 4.49549 3.17881 6.11975 2.39166 8.0201C1.60451 9.92045 1.39855 12.0115 1.79984 14.0289C2.20112 16.0464 3.19163 17.8995 4.6461 19.3539C6.10056 20.8084 7.95366 21.7989 9.97107 22.2002C11.9885 22.6015 14.0796 22.3955 15.9799 21.6084C17.8803 20.8212 19.5045 19.4882 20.6473 17.7779C21.7901 16.0677 22.4 14.0569 22.4 12C22.4 9.24175 21.3043 6.59647 19.3539 4.6461C17.4035 2.69572 14.7583 1.60001 12 1.60001Z" fill="white"/>
<path d="M10.1359 16.8C10.0263 16.7996 9.91781 16.7767 9.81734 16.7327C9.71687 16.6886 9.62654 16.6244 9.55195 16.544L5.81595 12.544C5.68829 12.3866 5.62515 12.1865 5.63928 11.9844C5.6534 11.7822 5.74374 11.5929 5.89205 11.4547C6.04035 11.3166 6.23556 11.2399 6.43824 11.2401C6.64092 11.2403 6.83596 11.3175 6.98395 11.456L10.1359 14.824L17.0159 7.45598C17.085 7.37079 17.1709 7.30072 17.2682 7.25011C17.3655 7.1995 17.4722 7.16944 17.5816 7.1618C17.691 7.15415 17.8008 7.16909 17.9042 7.20567C18.0076 7.24226 18.1024 7.29972 18.1826 7.37447C18.2629 7.44923 18.3269 7.53969 18.3707 7.64024C18.4145 7.74078 18.4372 7.84926 18.4373 7.95894C18.4375 8.06862 18.415 8.17715 18.3714 8.27779C18.3278 8.37844 18.264 8.46904 18.1839 8.54398L10.7199 16.544C10.6454 16.6244 10.555 16.6886 10.4546 16.7327C10.3541 16.7767 10.2456 16.7996 10.1359 16.8Z" fill="white"/>
</svg>
