<svg width="23" height="23" viewBox="0 0 23 23" fill="none" xmlns="http://www.w3.org/2000/svg">
<path d="M0.92395 22.88L2.47298 17.2352C1.51601 15.5792 1.01334 13.7008 1.01565 11.7891C1.01818 5.78259 5.91559 0.896034 11.9338 0.896034C14.8542 0.897515 17.5954 2.03185 19.6569 4.09094C21.7185 6.15003 22.8528 8.887 22.8517 11.7978C22.8491 17.8039 17.9509 22.6914 11.9336 22.6914H11.9289C10.1018 22.6906 8.30642 22.2331 6.71169 21.3652L0.92395 22.88Z" fill="white"/>
<path d="M11.9371 2.73623C6.93153 2.73623 2.8608 6.79769 2.85902 11.7898C2.85655 13.4945 3.33751 15.1651 4.2463 16.6084L4.46221 16.951L3.54531 20.2919L6.97991 19.3931L7.31156 19.5892C8.70448 20.4143 10.3016 20.8506 11.9303 20.8515H11.9337C16.9354 20.8515 21.0062 16.7895 21.0081 11.7971C21.0119 10.6072 20.7791 9.42831 20.3233 8.32877C19.8675 7.22923 19.1977 6.23086 18.3527 5.39144C17.5124 4.54744 16.5126 3.87818 15.4114 3.42241C14.3102 2.96664 13.1293 2.73342 11.9371 2.73623Z" fill="url(#paint0_linear_84_2)"/>
<path fill-rule="evenodd" clip-rule="evenodd" d="M9.20495 7.23504C9.00047 6.78169 8.7853 6.77251 8.59106 6.76466L8.06814 6.75829C7.88622 6.75829 7.59063 6.82642 7.34074 7.09893C7.09086 7.37144 6.38586 8.03006 6.38586 9.36967C6.38586 10.7093 7.36345 12.0037 7.49967 12.1856C7.63589 12.3674 9.38687 15.2041 12.1598 16.2955C14.4641 17.2025 14.933 17.0221 15.4334 16.9767C15.9338 16.9314 17.0474 16.3181 17.2746 15.6823C17.5018 15.0465 17.5019 14.5018 17.4338 14.3879C17.3657 14.274 17.1838 14.2063 16.9108 14.07C16.6377 13.9338 15.2967 13.2752 15.0467 13.1842C14.7967 13.0933 14.6149 13.0481 14.4328 13.3206C14.2507 13.5932 13.7286 14.2062 13.5693 14.3879C13.4101 14.5696 13.2512 14.5924 12.9782 14.4563C12.7051 14.3202 11.8267 14.0326 10.7844 13.105C9.97345 12.3833 9.42605 11.492 9.26668 11.2196C9.10731 10.9473 9.24976 10.7998 9.38657 10.6641C9.50899 10.5421 9.65931 10.3461 9.79598 10.1872C9.93264 10.0283 9.9776 9.91469 10.0684 9.73326C10.1592 9.55183 10.114 9.39247 10.0457 9.25637C9.97746 9.12026 9.44741 7.7737 9.20495 7.23519" fill="white"/>
<defs>
<linearGradient id="paint0_linear_84_2" x1="11.7488" y1="3.82332" x2="11.8405" y2="19.3039" gradientUnits="userSpaceOnUse">
<stop stop-color="#57D163"/>
<stop offset="1" stop-color="#23B33A"/>
</linearGradient>
</defs>
</svg>
